<svg width="25" height="25" viewBox="0 0 25 25" fill="none" xmlns="http://www.w3.org/2000/svg">
<g clip-path="url(#clip0_85_9)">
<path d="M14.1597 19.2085L20.8333 12.5001L14.1597 5.79179C14.0994 5.71264 14.0229 5.64737 13.9352 5.60038C13.8475 5.5534 13.7507 5.52581 13.6514 5.51948C13.5521 5.51314 13.4527 5.52821 13.3597 5.56367C13.2668 5.59912 13.1825 5.65414 13.1127 5.72498C13.0428 5.79583 12.989 5.88086 12.9549 5.9743C12.9208 6.06775 12.9071 6.16744 12.9149 6.26662C12.9226 6.36581 12.9516 6.46216 12.9998 6.54918C13.0481 6.63619 13.1144 6.71182 13.1944 6.77095L18.1875 11.8057H4.90276C4.71858 11.8057 4.54195 11.8788 4.41171 12.0091C4.28148 12.1393 4.20831 12.3159 4.20831 12.5001C4.20831 12.6843 4.28148 12.8609 4.41171 12.9912C4.54195 13.1214 4.71858 13.1946 4.90276 13.1946H18.1875L13.1944 18.2293C13.0646 18.3601 12.992 18.537 12.9926 18.7213C12.9933 18.9056 13.0671 19.0821 13.1979 19.2119C13.3287 19.3418 13.5057 19.4144 13.6899 19.4137C13.8742 19.4131 14.0507 19.3392 14.1805 19.2085H14.1597Z" fill="white"/>
</g>
<defs>
<clipPath id="clip0_85_9">
<rect width="25" height="25" fill="white" transform="matrix(0 1 -1 0 25 0)"/>
</clipPath>
</defs>
</svg>
