<svg width="30" height="30" viewBox="0 0 30 30" fill="none" xmlns="http://www.w3.org/2000/svg">
<path d="M13.4375 16.3C13.4375 15.5875 12.85 15 12.1375 15C11.425 15 10.8375 15.5875 10.8375 16.3C10.8375 16.6448 10.9745 16.9754 11.2183 17.2192C11.4621 17.463 11.7927 17.6 12.1375 17.6C12.4823 17.6 12.813 17.463 13.0568 17.2192C13.3006 16.9754 13.4375 16.6448 13.4375 16.3ZM17.6125 19.2625C17.05 19.825 15.85 20.025 15 20.025C14.15 20.025 12.95 19.825 12.3875 19.2625C12.3571 19.2299 12.3203 19.204 12.2795 19.1863C12.2386 19.1685 12.1946 19.1594 12.15 19.1594C12.1055 19.1594 12.0614 19.1685 12.0206 19.1863C11.9797 19.204 11.9429 19.2299 11.9125 19.2625C11.88 19.2929 11.854 19.3297 11.8363 19.3705C11.8185 19.4114 11.8094 19.4555 11.8094 19.5C11.8094 19.5445 11.8185 19.5886 11.8363 19.6295C11.854 19.6703 11.88 19.7071 11.9125 19.7375C12.8 20.625 14.5 20.7 15 20.7C15.5 20.7 17.2 20.625 18.0875 19.7375C18.1201 19.7071 18.146 19.6703 18.1638 19.6295C18.1815 19.5886 18.1907 19.5445 18.1907 19.5C18.1907 19.4555 18.1815 19.4114 18.1638 19.3705C18.146 19.3297 18.1201 19.2929 18.0875 19.2625C17.9625 19.1375 17.75 19.1375 17.6125 19.2625ZM17.8625 15C17.15 15 16.5625 15.5875 16.5625 16.3C16.5625 17.0125 17.15 17.6 17.8625 17.6C18.575 17.6 19.1625 17.0125 19.1625 16.3C19.1625 15.5875 18.5875 15 17.8625 15Z" fill="white"/>
<path d="M15 2.5C8.1 2.5 2.5 8.1 2.5 15C2.5 21.9 8.1 27.5 15 27.5C21.9 27.5 27.5 21.9 27.5 15C27.5 8.1 21.9 2.5 15 2.5ZM22.25 16.6625C22.275 16.8375 22.2875 17.025 22.2875 17.2125C22.2875 20.0125 19.025 22.2875 15 22.2875C10.975 22.2875 7.7125 20.0125 7.7125 17.2125C7.7125 17.025 7.725 16.8375 7.75 16.6625C7.1125 16.375 6.675 15.7375 6.675 15C6.67315 14.6416 6.77725 14.2906 6.97424 13.9911C7.17123 13.6916 7.45232 13.457 7.7822 13.3168C8.11207 13.1766 8.47604 13.1369 8.82837 13.2029C9.18069 13.2689 9.50568 13.4374 9.7625 13.6875C11.025 12.775 12.775 12.2 14.7125 12.1375L15.6375 7.775C15.65 7.6875 15.7 7.6125 15.775 7.575C15.85 7.525 15.9375 7.5125 16.025 7.525L19.05 8.175C19.1526 7.96697 19.309 7.79018 19.5029 7.66297C19.6969 7.53576 19.9213 7.46275 20.153 7.45153C20.3847 7.4403 20.6151 7.49127 20.8205 7.59914C21.0258 7.70701 21.1986 7.86785 21.3208 8.06498C21.443 8.26212 21.5103 8.48836 21.5156 8.72025C21.5209 8.95214 21.4641 9.18122 21.351 9.38375C21.2379 9.58627 21.0727 9.75485 20.8725 9.872C20.6723 9.98915 20.4444 10.0506 20.2125 10.05C19.5125 10.05 18.95 9.5 18.9125 8.8125L16.2 8.2375L15.375 12.1375C17.2875 12.2 19 12.7875 20.25 13.6875C20.4416 13.5045 20.6709 13.3656 20.9218 13.2805C21.1727 13.1954 21.4392 13.1661 21.7026 13.1948C21.966 13.2234 22.22 13.3092 22.4468 13.4463C22.6735 13.5833 22.8676 13.7683 23.0154 13.9882C23.1633 14.208 23.2613 14.4576 23.3026 14.7193C23.3439 14.981 23.3275 15.2486 23.2546 15.5033C23.1817 15.758 23.054 15.9938 22.8805 16.194C22.707 16.3942 22.4918 16.5541 22.25 16.6625Z" fill="white"/>
</svg>
