<svg width="28" height="28" viewBox="0 0 28 28" fill="none" xmlns="http://www.w3.org/2000/svg">
<g clip-path="url(#clip0_74_69)">
<path d="M13.8306 0.0338013C13.4944 -0.0381091 13.1438 0.00588184 12.8358 0.158614C12.5278 0.311347 12.2805 0.563829 12.1343 0.874968L12.1308 0.884301L9.2013 7.49813C9.15023 7.71867 9.03285 7.91829 8.86495 8.07013C8.69705 8.22197 8.48668 8.31875 8.26213 8.34747H8.2563L1.26446 9.67047C0.944843 9.75318 0.651672 9.91623 0.412798 10.1441L0.413965 10.143C0.274469 10.2806 0.165407 10.4459 0.0938309 10.6283C0.0222551 10.8107 -0.0102401 11.006 -0.0015528 11.2018C0.00713446 11.3975 0.0568107 11.5893 0.144263 11.7646C0.231715 11.9399 0.354996 12.0949 0.506131 12.2196L0.508465 12.222L5.7993 17.136C5.97045 17.2894 6.10258 17.4814 6.18475 17.696C6.26692 17.9107 6.29676 18.1418 6.2718 18.3703V18.3645L5.1378 27.1518C5.12105 27.3166 5.15482 27.4826 5.23463 27.6278L5.2323 27.6231C5.27363 27.7061 5.33156 27.7797 5.4025 27.8393C5.47344 27.899 5.55587 27.9434 5.6447 27.9699C5.73352 27.9963 5.82683 28.0043 5.91885 27.9932C6.01087 27.9821 6.09963 27.9523 6.17963 27.9055L6.17613 27.9066L13.6405 23.5596C13.735 23.5596 13.8295 23.4651 13.924 23.4651V0.031468L13.8306 0.0338013Z" fill="#FFAC33"/>
</g>
<defs>
<clipPath id="clip0_74_69">
<rect width="28" height="28" fill="white"/>
</clipPath>
</defs>
</svg>
