<svg width="30" height="30" viewBox="0 0 30 30" fill="none" xmlns="http://www.w3.org/2000/svg">
<path d="M22.7392 28.8558C22.4025 28.8558 22.0675 28.7525 21.7792 28.5467L15 23.685L8.22084 28.5467C7.93996 28.7487 7.60243 28.8569 7.25642 28.8557C6.91042 28.8545 6.57364 28.744 6.29417 28.54C6.01434 28.3372 5.80562 28.0514 5.69774 27.7231C5.58986 27.3948 5.58832 27.0409 5.69334 26.7117L8.22167 18.5517L1.50334 13.8175C1.2249 13.612 1.01812 13.3242 0.912245 12.9947C0.806366 12.6653 0.806748 12.3109 0.913336 11.9817C1.02099 11.6534 1.22897 11.3672 1.50796 11.1634C1.78694 10.9596 2.12286 10.8485 2.46834 10.8458L10.7892 10.8333L13.4383 2.87582C13.5477 2.54801 13.7573 2.2629 14.0377 2.06087C14.3181 1.85884 14.6549 1.75012 15.0004 1.75012C15.346 1.75012 15.6828 1.85884 15.9631 2.06087C16.2435 2.2629 16.4532 2.54801 16.5625 2.87582L19.1667 10.8333L27.53 10.8458C27.876 10.8478 28.2125 10.9587 28.4918 11.1628C28.7711 11.3669 28.979 11.6539 29.086 11.9829C29.1929 12.3119 29.1934 12.6663 29.0875 12.9956C28.9816 13.3249 28.7745 13.6125 28.4958 13.8175L21.7775 18.5517L24.3058 26.7117C24.4109 27.0408 24.4095 27.3947 24.3018 27.7229C24.1941 28.0512 23.9855 28.3371 23.7058 28.54C23.4254 28.7455 23.0868 28.8561 22.7392 28.8558Z" fill="#FFAC33"/>
</svg>
